<?xml version="1.0" encoding="UTF-8" standalone="no"?>
<!-- Created with Inkscape (http://www.inkscape.org/) -->

<svg
   xmlns:dc="http://purl.org/dc/elements/1.1/"
   xmlns:cc="http://creativecommons.org/ns#"
   xmlns:rdf="http://www.w3.org/1999/02/22-rdf-syntax-ns#"
   xmlns:svg="http://www.w3.org/2000/svg"
   xmlns="http://www.w3.org/2000/svg"
   xmlns:sodipodi="http://sodipodi.sourceforge.net/DTD/sodipodi-0.dtd"
   xmlns:inkscape="http://www.inkscape.org/namespaces/inkscape"
   width="14.157048mm"
   height="14.111111mm"
   viewBox="0 0 50.16277 49.999998"
   id="svg4154"
   version="1.1"
   inkscape:version="0.91 r13725"
   sodipodi:docname="avion.svg"
   inkscape:export-filename="C:\wamp\www\taxidoudou\css\img\avion.png"
   inkscape:export-xdpi="90"
   inkscape:export-ydpi="90">
  <defs
     id="defs4156" />
  <sodipodi:namedview
     id="base"
     pagecolor="#ffffff"
     bordercolor="#666666"
     borderopacity="1.0"
     inkscape:pageopacity="0.0"
     inkscape:pageshadow="2"
     inkscape:zoom="3.959798"
     inkscape:cx="-28.216366"
     inkscape:cy="33.706384"
     inkscape:document-units="px"
     inkscape:current-layer="layer1"
     showgrid="false"
     fit-margin-top="0"
     fit-margin-left="0"
     fit-margin-right="0"
     fit-margin-bottom="0"
     inkscape:window-width="1680"
     inkscape:window-height="987"
     inkscape:window-x="1912"
     inkscape:window-y="21"
     inkscape:window-maximized="1" />
  <metadata
     id="metadata4159">
    <rdf:RDF>
      <cc:Work
         rdf:about="">
        <dc:format>image/svg+xml</dc:format>
        <dc:type
           rdf:resource="http://purl.org/dc/dcmitype/StillImage" />
        <dc:title></dc:title>
      </cc:Work>
    </rdf:RDF>
  </metadata>
  <g
     inkscape:label="Calque 1"
     inkscape:groupmode="layer"
     id="layer1"
     transform="translate(-542.65186,-439.57988)">
    <g
       transform="matrix(0.62383324,0,0,0.62383324,536.73202,432.8482)"
       id="g4"
       style="fill:#e74c3c;fill-opacity:1">
      <path
         inkscape:connector-curvature="0"
         d="m 83.2,10.8 -1.7,0.1 C 80,11 78.7,11.5 77.6,12.5 L 56.3,30.8 17,26.3 c -1,-0.1 -2.1,0.2 -2.8,0.9 l -4,4 C 9,32.4 9.4,34.3 10.8,35 L 38.7,49.3 25.5,64.6 14.9,65.1 c -0.6,0 -1.1,0.3 -1.4,0.8 l -0.9,1.2 c -0.9,1.2 -0.5,2.9 0.9,3.6 l 11,5.4 5.4,11 c 0.7,1.4 2.4,1.8 3.6,0.9 l 1.2,-0.9 c 0.4,-0.3 0.7,-0.9 0.8,-1.4 L 36,75 51.3,61.7 65.6,89.6 c 0.7,1.5 2.7,1.8 3.8,0.6 l 4,-4 c 0.7,-0.7 1.1,-1.8 0.9,-2.8 L 69.8,44.1 88.2,22.9 c 1,-1.1 1.5,-2.5 1.6,-3.9 l 0.1,-1.7 c 0,-3.6 -3,-6.7 -6.7,-6.5 z"
         id="path6"
         style="fill:#e74c3c;fill-opacity:1" />
    </g>
  </g>
</svg>
