<?xml version="1.0" encoding="UTF-8" standalone="no"?>
<!-- Created with Inkscape (http://www.inkscape.org/) -->

<svg
   xmlns:dc="http://purl.org/dc/elements/1.1/"
   xmlns:cc="http://creativecommons.org/ns#"
   xmlns:rdf="http://www.w3.org/1999/02/22-rdf-syntax-ns#"
   xmlns:svg="http://www.w3.org/2000/svg"
   xmlns="http://www.w3.org/2000/svg"
   xmlns:sodipodi="http://sodipodi.sourceforge.net/DTD/sodipodi-0.dtd"
   xmlns:inkscape="http://www.inkscape.org/namespaces/inkscape"
   width="52.516743mm"
   height="35.999725mm"
   viewBox="0 0 186.08295 127.55808"
   id="svg4857"
   version="1.1"
   inkscape:version="0.91 r13725"
   sodipodi:docname="bulle.svg"
   inkscape:export-filename="C:\wamp\www\taxidoudou\css\img\bulle.png"
   inkscape:export-xdpi="90"
   inkscape:export-ydpi="90">
  <defs
     id="defs4859" />
  <sodipodi:namedview
     id="base"
     pagecolor="#ffffff"
     bordercolor="#666666"
     borderopacity="1.0"
     inkscape:pageopacity="0.0"
     inkscape:pageshadow="2"
     inkscape:zoom="0.7"
     inkscape:cx="-643.18137"
     inkscape:cy="30.032243"
     inkscape:document-units="px"
     inkscape:current-layer="layer1"
     showgrid="false"
     fit-margin-top="0"
     fit-margin-left="0"
     fit-margin-right="0"
     fit-margin-bottom="0"
     inkscape:window-width="1920"
     inkscape:window-height="1017"
     inkscape:window-x="-8"
     inkscape:window-y="-8"
     inkscape:window-maximized="1" />
  <metadata
     id="metadata4862">
    <rdf:RDF>
      <cc:Work
         rdf:about="">
        <dc:format>image/svg+xml</dc:format>
        <dc:type
           rdf:resource="http://purl.org/dc/dcmitype/StillImage" />
        <dc:title></dc:title>
      </cc:Work>
    </rdf:RDF>
  </metadata>
  <g
     inkscape:label="Calque 1"
     inkscape:groupmode="layer"
     id="layer1"
     transform="translate(-82.112981,-397.36947)">
    <path
       style="fill:#db281c;fill-opacity:1"
       d="m 228.10604,516.36941 -15.96604,-8.49225 -7.18995,1.49849 c -11.37323,2.37035 -20.12596,3.07132 -33.86075,2.71178 -29.78298,-0.77964 -53.59207,-8.70953 -71.135041,-23.69237 -16.308213,-13.92828 -21.664899,-30.79344 -15.124853,-47.61957 6.591812,-16.95933 26.821734,-31.95637 52.482634,-38.90692 14.06886,-3.81071 20.01087,-4.51293 38.0689,-4.4989 14.44185,0.0112 17.74122,0.20472 24.31966,1.42637 30.43358,5.65166 53.42637,18.96172 63.23776,36.60707 3.78083,6.79967 5.27099,12.25972 5.25748,19.2638 -0.0137,7.16472 -1.47788,12.5471 -5.21783,19.18245 -5.81968,10.32524 -16.50059,19.57533 -30.75864,26.6382 -1.20136,0.59511 -0.82238,1.50319 4.25517,10.19596 4.92716,8.4353 8.18418,14.42341 7.74532,14.23992 -0.0813,-0.034 -7.33249,-3.88329 -16.11382,-8.55403 z"
       id="path5416"
       inkscape:connector-curvature="0" />
  </g>
</svg>
