<?xml version="1.0" encoding="UTF-8" standalone="no"?>
<svg
   xmlns:dc="http://purl.org/dc/elements/1.1/"
   xmlns:cc="http://creativecommons.org/ns#"
   xmlns:rdf="http://www.w3.org/1999/02/22-rdf-syntax-ns#"
   xmlns:svg="http://www.w3.org/2000/svg"
   xmlns="http://www.w3.org/2000/svg"
   xmlns:sodipodi="http://sodipodi.sourceforge.net/DTD/sodipodi-0.dtd"
   xmlns:inkscape="http://www.inkscape.org/namespaces/inkscape"
   version="1.1"
   x="0px"
   y="0px"
   viewBox="0 0 37.96656 52"
   enable-background="new 0 0 73.359 100"
   xml:space="preserve"
   id="svg2"
   inkscape:version="0.48.4 r9939"
   width="100%"
   height="100%"
   sodipodi:docname="localize.svg"><metadata
     id="metadata18"><rdf:RDF><cc:Work
         rdf:about=""><dc:format>image/svg+xml</dc:format><dc:type
           rdf:resource="http://purl.org/dc/dcmitype/StillImage" /></cc:Work></rdf:RDF></metadata><defs
     id="defs16" /><sodipodi:namedview
     pagecolor="#ffffff"
     bordercolor="#666666"
     borderopacity="1"
     objecttolerance="10"
     gridtolerance="10"
     guidetolerance="10"
     inkscape:pageopacity="0"
     inkscape:pageshadow="2"
     inkscape:window-width="1657"
     inkscape:window-height="849"
     id="namedview14"
     showgrid="false"
     fit-margin-top="0"
     fit-margin-left="0"
     fit-margin-right="0"
     fit-margin-bottom="0"
     inkscape:zoom="1.888"
     inkscape:cx="36.679499"
     inkscape:cy="44.178686"
     inkscape:window-x="0"
     inkscape:window-y="0"
     inkscape:window-maximized="0"
     inkscape:current-layer="svg2" /><g
     id="g4"
     transform="scale(0.51753762,0.5199948)"><g
       id="g6"><path
         d="M 36.68,0 C 16.457,0 0,16.454 0,36.678 c 0,26.153 31.386,60.164 32.724,61.597 1.021,1.1 2.453,1.726 3.956,1.726 1.499,0 2.931,-0.625 3.955,-1.726 C 41.973,96.843 73.36,62.831 73.36,36.678 73.359,16.453 56.903,0 36.68,0 z M 22.202,35.523 c 0,-7.998 6.482,-14.482 14.478,-14.482 7.996,0 14.478,6.482 14.478,14.482 0,7.996 -6.481,14.478 -14.478,14.478 C 28.685,50 22.202,43.518 22.202,35.523 z"
         id="path8"
         inkscape:connector-curvature="0"
         style="fill:#010101" /></g></g></svg>