<svg xmlns="http://www.w3.org/2000/svg" xmlns:xlink="http://www.w3.org/1999/xlink" version="1.1" x="0px" y="0px" viewBox="0 0 100 125" enable-background="new 0 0 100 100" xml:space="preserve"><path fill-rule="evenodd" clip-rule="evenodd" d="M7.034,4.129c3.965-3.968,15.924-4.629,16.017-2.53  c0.089,2.098,10.775,25.371,10.87,27.469c0.091,2.099-7.048,9.251-9.136,11.347C22.717,42.49,38.748,60.65,39.051,60.992  c0.345,0.306,18.463,16.377,20.532,14.305c2.087-2.097,9.225-9.25,11.318-9.157s25.312,10.803,27.406,10.894  c2.092,0.096,1.434,12.081-2.529,16.054c-3.382,3.39-20.909,15.707-51.388-6.286c-3.343-1.928-8.638-6.35-16.664-14.39  c-0.007-0.005-0.01-0.008-0.012-0.012c-0.011-0.006-0.012-0.012-0.02-0.019c-0.005-0.006-0.012-0.011-0.018-0.019  c-0.006-0.005-0.013-0.011-0.019-0.017c-8.022-8.044-12.43-13.352-14.351-16.699C-8.632,25.093,3.654,7.522,7.034,4.129z"/><text x="0" y="115" fill="#000000" font-size="5px" font-weight="bold" font-family="'Helvetica Neue', Helvetica, Arial-Unicode, Arial, Sans-serif">Created by Michael Zenaty</text><text x="0" y="120" fill="#000000" font-size="5px" font-weight="bold" font-family="'Helvetica Neue', Helvetica, Arial-Unicode, Arial, Sans-serif">from the Noun Project</text></svg>