<svg xmlns="http://www.w3.org/2000/svg" xmlns:xlink="http://www.w3.org/1999/xlink" version="1.1" x="0px" y="0px" viewBox="0 0 100 125" enable-background="new 0 0 100 100" xml:space="preserve"><path stroke="#000000" stroke-miterlimit="10" d="M36.989,23.463c-0.37-0.641-2.421-2.729-3.203-2.278l-0.631,0.365  c-0.782,0.452,0,3.271,0.371,3.913l14.741,25.532l3.461-1.988L36.989,23.463z"/><path stroke="#000000" stroke-miterlimit="10" d="M47.501,32.126L47.5,51.704c0,0.438,0.916,0.794,2.043,0.795l0.914-0.001  c1.127,0.001,2.042-0.355,2.042-0.795l-0.001-19.577c0.001-0.438-0.914-2.124-2.043-2.123h-0.913  C48.415,30.003,47.5,31.688,47.501,32.126z"/><path stroke="#000000" stroke-miterlimit="10" d="M26.21,11.799c0.848-0.528,1.715-1.028,2.599-1.502  c0.48,0.89,1.871,4.62,1.168,5.025C29.266,15.733,27.585,14.16,26.21,11.799z M74.496,7.571C90.211,16.646,99,33.113,99,50.046  c-0.001,8.312-2.117,16.733-6.572,24.449C78.898,97.93,48.936,105.957,25.503,92.428C9.788,83.354,1.001,66.885,1,49.953  c0-8.311,2.116-16.733,6.573-24.448C21.101,2.071,51.063-5.958,74.496,7.571z M67.512,91.458c1.227-0.519,2.424-1.087,3.588-1.708  c-1.354-2.368-1.877-4.611-1.166-5.021c0.703-0.405,3.242,2.668,3.77,3.526c2.928-1.815,5.643-3.971,8.111-6.44  c2.428-2.426,4.547-5.084,6.34-7.949c-0.834-0.506-3.949-3.068-3.541-3.775c0.412-0.714,2.669-0.185,5.049,1.18  c0.654-1.22,1.256-2.473,1.799-3.756c2.135-5.053,3.311-10.395,3.503-15.899c-1.095-0.052-4.881-0.699-4.88-1.495  c0-0.816,2.178-1.482,4.889-1.502c-0.106-3.542-0.625-7.047-1.547-10.439c-0.88-3.234-2.121-6.365-3.701-9.326  c-2.371,1.357-4.615,1.882-5.026,1.17c-0.409-0.711,1.166-2.392,3.526-3.768c-3.637-5.838-8.586-10.793-14.422-14.439  c-1.367,2.32-3.021,3.859-3.727,3.453c-0.684-0.395,0.625-3.954,1.136-4.953c-2.915-1.562-5.994-2.797-9.178-3.679  c-3.425-0.949-6.96-1.486-10.537-1.603c-0.019,2.715-0.685,4.898-1.503,4.899c-0.8,0.001-1.453-3.832-1.496-4.898  c-5.544,0.18-10.924,1.358-16.009,3.509c-1.257,0.532-2.483,1.118-3.679,1.755c-0.011-0.02-0.022-0.038-0.031-0.055l-2.601,1.502  c0.011,0.019,0.022,0.036,0.034,0.055c-2.895,1.806-5.579,3.941-8.025,6.387c-2.467,2.467-4.618,5.177-6.433,8.099  c0.936,0.605,3.859,3.039,3.463,3.725c-0.407,0.705-2.611,0.199-4.957-1.126c-0.623,1.171-1.196,2.373-1.717,3.604  C6.37,37.625,5.192,43.061,5.03,48.664c1.169,0.071,4.816,0.71,4.816,1.492c0,0.808-2.134,1.468-4.807,1.501  c0.125,3.45,0.64,6.862,1.538,10.168c0.886,3.263,2.144,6.422,3.745,9.407c2.374-1.358,4.618-1.885,5.029-1.172  c0.411,0.711-1.162,2.39-3.522,3.765c3.632,5.805,8.561,10.731,14.371,14.36c1.369-2.318,3.023-3.857,3.727-3.451  c0.685,0.396-0.625,3.953-1.135,4.953c2.915,1.563,5.994,2.797,9.177,3.68c3.449,0.955,7.016,1.49,10.624,1.603  c0.009-2.739,0.678-4.95,1.502-4.95c0.813,0,1.473,3.955,1.498,4.946C57.104,94.775,62.452,93.598,67.512,91.458z"/><text x="0" y="115" fill="#000000" font-size="5px" font-weight="bold" font-family="'Helvetica Neue', Helvetica, Arial-Unicode, Arial, Sans-serif">Created by christoph robausch</text><text x="0" y="120" fill="#000000" font-size="5px" font-weight="bold" font-family="'Helvetica Neue', Helvetica, Arial-Unicode, Arial, Sans-serif">from the Noun Project</text></svg>