<?xml version="1.0" encoding="UTF-8" standalone="no"?>
<svg
   xmlns:dc="http://purl.org/dc/elements/1.1/"
   xmlns:cc="http://creativecommons.org/ns#"
   xmlns:rdf="http://www.w3.org/1999/02/22-rdf-syntax-ns#"
   xmlns:svg="http://www.w3.org/2000/svg"
   xmlns="http://www.w3.org/2000/svg"
   xmlns:sodipodi="http://sodipodi.sourceforge.net/DTD/sodipodi-0.dtd"
   xmlns:inkscape="http://www.inkscape.org/namespaces/inkscape"
   version="1.1"
   x="0px"
   y="0px"
   viewBox="0 0 169.99999 170"
   enable-background="new 0 0 90 90"
   xml:space="preserve"
   id="svg2"
   inkscape:version="0.48.4 r9939"
   width="100%"
   height="100%"
   sodipodi:docname="noun_140463_cc.svg"><metadata
     id="metadata16"><rdf:RDF><cc:Work
         rdf:about=""><dc:format>image/svg+xml</dc:format><dc:type
           rdf:resource="http://purl.org/dc/dcmitype/StillImage" /></cc:Work></rdf:RDF></metadata><defs
     id="defs14" /><sodipodi:namedview
     pagecolor="#ffffff"
     bordercolor="#666666"
     borderopacity="1"
     objecttolerance="10"
     gridtolerance="10"
     guidetolerance="10"
     inkscape:pageopacity="0"
     inkscape:pageshadow="2"
     inkscape:window-width="1920"
     inkscape:window-height="1017"
     id="namedview12"
     showgrid="false"
     fit-margin-top="0"
     fit-margin-left="0"
     fit-margin-right="0"
     fit-margin-bottom="0"
     inkscape:zoom="1.4833529"
     inkscape:cx="3.1233394"
     inkscape:cy="126.02163"
     inkscape:window-x="-8"
     inkscape:window-y="-8"
     inkscape:window-maximized="1"
     inkscape:current-layer="g3763" /><g
     id="g3763"
     transform="translate(135.85805,16.673733)"><path
       transform="matrix(1.0519829,0,0,1.0774086,-142.8787,-18.545504)"
       d="m 168.27331,80.630295 c 0,43.571405 -36.1753,78.893005 -80.799792,78.893005 -44.624491,0 -80.7997891,-35.3216 -80.7997891,-78.893005 0,-43.571404 36.1752981,-78.8930056 80.7997891,-78.8930056 44.624492,0 80.799792,35.3216016 80.799792,78.8930056 z"
       sodipodi:ry="78.893005"
       sodipodi:rx="80.799789"
       sodipodi:cy="80.630295"
       sodipodi:cx="87.473518"
       id="path2993"
       style="fill:#000000;fill-opacity:0.97254902;stroke:none"
       sodipodi:type="arc" /><g
       style="fill:#ffffff"
       transform="matrix(1.6558828,0,0,1.6655227,-127.85704,-12.870708)"
       id="g4"><path
         style="fill:#ffffff"
         inkscape:connector-curvature="0"
         id="path6"
         d="m 46.6,16.5 c -17.6,0 -32,14.3 -32,32 0,11.1 5.6,21.2 15,27.1 0.9,0.6 2.2,0.3 2.8,-0.6 0.6,-0.9 0.3,-2.2 -0.6,-2.8 -3.4,-2.1 -6.2,-4.9 -8.3,-8.1 l 2.1,-1.2 c 1,-0.6 1.3,-1.8 0.7,-2.7 -0.6,-1 -1.8,-1.3 -2.7,-0.7 l -2.1,1.2 C 20,57.5 19,54.1 18.8,50.5 H 21 c 1.1,0 2,-0.9 2,-2 0,-1.1 -0.9,-2 -2,-2 h -2.2 c 0.3,-3.7 1.2,-7.1 2.8,-10.3 l 2,1.2 c 0.3,0.2 0.7,0.3 1,0.3 0.7,0 1.4,-0.4 1.7,-1 0.6,-1 0.2,-2.2 -0.7,-2.7 l -2,-1.1 c 2,-2.9 4.6,-5.5 7.5,-7.4 l 1.1,2 c 0.4,0.6 1,1 1.7,1 0.3,0 0.7,-0.1 1,-0.3 1,-0.6 1.3,-1.8 0.7,-2.7 l -1.1,-1.9 c 3.1,-1.5 6.5,-2.4 10.1,-2.7 v 2.5 c 0,1.1 0.9,2 2,2 1.1,0 2,-0.9 2,-2 v -2.5 c 3.7,0.3 7.1,1.2 10.3,2.7 l -1.1,1.9 c -0.6,1 -0.2,2.2 0.7,2.7 0.3,0.2 0.7,0.3 1,0.3 0.7,0 1.4,-0.4 1.7,-1 l 1.1,-1.9 c 2.9,2 5.4,4.5 7.4,7.4 l -1.9,1.1 c -1,0.6 -1.3,1.8 -0.7,2.7 0.4,0.6 1,1 1.7,1 0.3,0 0.7,-0.1 1,-0.3 l 1.9,-1.1 c 1.5,3.1 2.5,6.6 2.8,10.3 h -2.2 c -1.1,0 -2,0.9 -2,2 0,1.1 0.9,2 2,2 h 2.2 c -0.3,3.6 -1.2,7 -2.7,10.1 l -2,-1.1 c -1,-0.6 -2.2,-0.2 -2.7,0.7 -0.6,1 -0.2,2.2 0.7,2.7 l 2,1.1 c -2.2,3.3 -5.1,6.1 -8.6,8.2 -0.9,0.6 -1.2,1.8 -0.7,2.8 0.4,0.6 1,1 1.7,1 0.4,0 0.7,-0.1 1,-0.3 C 72.7,70 78.4,59.9 78.4,48.7 78.5,30.8 64.2,16.5 46.6,16.5 z m 14.7,25.7 c 1,-0.6 1.3,-1.8 0.7,-2.7 -0.6,-1 -1.8,-1.3 -2.7,-0.7 L 48.5,45 c -0.6,-0.3 -1.2,-0.5 -2,-0.5 -2.2,0 -4,1.8 -4,4 0,2.2 1.8,4 4,4 2.2,0 4,-1.8 4,-4 0,0 0,0 0,0 l 10.8,-6.3 z" /></g></g></svg>