<?xml version="1.0" encoding="UTF-8" standalone="no"?>
<svg
   xmlns:dc="http://purl.org/dc/elements/1.1/"
   xmlns:cc="http://creativecommons.org/ns#"
   xmlns:rdf="http://www.w3.org/1999/02/22-rdf-syntax-ns#"
   xmlns:svg="http://www.w3.org/2000/svg"
   xmlns="http://www.w3.org/2000/svg"
   xmlns:sodipodi="http://sodipodi.sourceforge.net/DTD/sodipodi-0.dtd"
   xmlns:inkscape="http://www.inkscape.org/namespaces/inkscape"
   version="1.1"
   x="0px"
   y="0px"
   viewBox="-2292.9616 0 0 47.999999"
   enable-background="new 0 0 100 100"
   xml:space="preserve"
   id="svg2"
   inkscape:version="0.91 r13725"
   width="42"
   height="42"
   sodipodi:docname="phone.svg"
   inkscape:export-filename="C:\wamp\www\taxidoudou\css\img\phone.png"
   inkscape:export-xdpi="90"
   inkscape:export-ydpi="90"><metadata
     id="metadata14"><rdf:RDF><cc:Work
         rdf:about=""><dc:format>image/svg+xml</dc:format><dc:type
           rdf:resource="http://purl.org/dc/dcmitype/StillImage" /><dc:title /></cc:Work></rdf:RDF></metadata><defs
     id="defs12" /><sodipodi:namedview
     pagecolor="#ffffff"
     bordercolor="#666666"
     borderopacity="1"
     objecttolerance="10"
     gridtolerance="10"
     guidetolerance="10"
     inkscape:pageopacity="0"
     inkscape:pageshadow="2"
     inkscape:window-width="1680"
     inkscape:window-height="987"
     id="namedview10"
     showgrid="false"
     fit-margin-top="0"
     fit-margin-left="0"
     fit-margin-right="0"
     fit-margin-bottom="0"
     inkscape:zoom="3.776"
     inkscape:cx="-19.448854"
     inkscape:cy="-32.85764"
     inkscape:window-x="1912"
     inkscape:window-y="21"
     inkscape:window-maximized="1"
     inkscape:current-layer="svg2" /><path
     d="M 2.753081,1.5666319 C 4.4365293,-0.11404911 9.5140471,-0.39402111 9.5535317,0.49502689 9.5913167,1.3836549 14.12835,11.241138 14.168685,12.129765 c 0.03864,0.88905 -2.99242,3.918342 -3.878935,4.806121 -0.8780258,0.878886 5.928368,8.570714 6.057016,8.715569 0.146476,0.129616 7.838965,6.936624 8.717417,6.059012 0.88609,-0.888206 3.916723,-3.917921 4.805364,-3.878531 0.888639,0.03938 10.746895,4.575706 11.63596,4.614251 0.888214,0.04065 0.608841,5.117013 -1.073757,6.799812 -1.435921,1.435864 -8.877483,6.652837 -21.818166,-2.66249 -1.419362,-0.816622 -3.667499,-2.689599 -7.075154,-6.095011 -0.003,-0.0021 -0.0043,-0.0033 -0.0051,-0.0051 -0.0047,-0.0026 -0.0051,-0.0051 -0.0085,-0.008 -0.0021,-0.0026 -0.0051,-0.0047 -0.0076,-0.008 -0.0026,-0.0021 -0.0055,-0.0047 -0.0081,-0.0072 C 8.1031769,27.053013 6.2316412,24.804764 5.4160285,23.387111 -3.8983436,10.446118 1.3180107,3.0037669 2.753081,1.5666319 Z"
     id="path4"
     inkscape:connector-curvature="0"
     style="clip-rule:evenodd;fill-rule:evenodd;fill:#ffffff" /></svg>