<?xml version="1.0" encoding="UTF-8" standalone="no"?>
<svg
   xmlns:dc="http://purl.org/dc/elements/1.1/"
   xmlns:cc="http://creativecommons.org/ns#"
   xmlns:rdf="http://www.w3.org/1999/02/22-rdf-syntax-ns#"
   xmlns:svg="http://www.w3.org/2000/svg"
   xmlns="http://www.w3.org/2000/svg"
   xmlns:sodipodi="http://sodipodi.sourceforge.net/DTD/sodipodi-0.dtd"
   xmlns:inkscape="http://www.inkscape.org/namespaces/inkscape"
   version="1.1"
   x="0px"
   y="0px"
   viewBox="0 0 50.000027 50"
   id="svg2"
   inkscape:version="0.91 r13725"
   sodipodi:docname="price.svg"
   width="50.000027"
   height="50"
   inkscape:export-filename="C:\wamp\www\taxidoudou\css\img\price.png"
   inkscape:export-xdpi="90"
   inkscape:export-ydpi="90">
  <metadata
     id="metadata16">
    <rdf:RDF>
      <cc:Work
         rdf:about="">
        <dc:format>image/svg+xml</dc:format>
        <dc:type
           rdf:resource="http://purl.org/dc/dcmitype/StillImage" />
        <dc:title></dc:title>
      </cc:Work>
    </rdf:RDF>
  </metadata>
  <defs
     id="defs14" />
  <sodipodi:namedview
     pagecolor="#ffffff"
     bordercolor="#666666"
     borderopacity="1"
     objecttolerance="10"
     gridtolerance="10"
     guidetolerance="10"
     inkscape:pageopacity="0"
     inkscape:pageshadow="2"
     inkscape:window-width="756"
     inkscape:window-height="480"
     id="namedview12"
     showgrid="false"
     fit-margin-top="0"
     fit-margin-left="0"
     fit-margin-right="0"
     fit-margin-bottom="0"
     inkscape:zoom="0.3337544"
     inkscape:cx="-111.57107"
     inkscape:cy="-11.154943"
     inkscape:window-x="2300"
     inkscape:window-y="189"
     inkscape:window-maximized="0"
     inkscape:current-layer="svg2" />
  <g
     transform="matrix(0.55575391,0,0,0.55575391,-2.7966856,-532.05775)"
     id="g4"
     style="fill:#e74c3c;fill-opacity:1">
    <path
       style="color:#000000;text-indent:0;text-transform:none;direction:ltr;block-progression:tb;baseline-shift:baseline;display:inline;overflow:visible;visibility:visible;fill:#e74c3c;fill-opacity:1;stroke:none;marker:none;enable-background:accumulate"
       d="M 86.34375,5 53.375,5.6875 a 3.0003,3.0003 0 0 0 -2.0625,0.875 L 6.46875,51.4375 c -1.9156793,1.9152 -1.9150208,5.11575 0,7.03125 L 41.5,93.53125 c 1.914907,1.9154 5.147135,1.9155 7.0625,0 l 44.84375,-44.875 a 3.0003,3.0003 0 0 0 0.90625,-2.0625 L 95,13.65625 a 3.0003,3.0003 0 0 0 0,-0.0625 C 95.000051,11.56522 94.64495,9.17583 92.75,7.28125 90.856899,5.38814 88.465342,4.99769 86.375,5 a 3.0003,3.0003 0 0 0 -0.03125,0 z m 0.0625,6 c 0.02774,-3e-5 0.03476,-6.3e-4 0.0625,0 0.961318,0.022 1.920501,0.4205 2.03125,0.53125 0.109088,0.10907 0.478936,0.9884 0.5,2 6.21e-4,0.0298 10e-7,0.0324 0,0.0625 L 88.34375,45.25 45.03125,88.5625 11.4375,54.96875 54.71875,11.65625 86.40625,11 Z M 77,15.03125 c -2.05366,0 -4.106716,0.762965 -5.65625,2.3125 -3.099068,3.09907 -3.099068,8.21343 0,11.3125 3.099068,3.09907 8.213432,3.09907 11.3125,0 3.099068,-3.09907 3.099068,-8.21343 0,-11.3125 C 81.106716,15.794215 79.05366,15.03125 77,15.03125 Z m 0,5.9375 c 0.505563,0 1.003163,0.221915 1.40625,0.625 0.806175,0.80618 0.806175,2.00633 0,2.8125 -0.806175,0.80617 -2.006326,0.80617 -2.8125,0 -0.806175,-0.80617 -0.806175,-2.00632 0,-2.8125 0.403087,-0.403085 0.900687,-0.625 1.40625,-0.625 z M 47,33 c -3.83046,0 -7,3.16954 -7,7 0,3.83046 3.16954,7 7,7 3.83046,0 7,-3.16954 7,-7 0,-3.83046 -3.16954,-7 -7,-7 z m 0,6 c 0.587818,0 1,0.41218 1,1 0,0.58782 -0.412182,1 -1,1 -0.587818,0 -1,-0.41218 -1,-1 0,-0.58782 0.412182,-1 1,-1 z M 29.6875,49 A 3.0040663,3.0040663 0 1 0 30,55 l 34,0 a 3.0003,3.0003 0 1 0 0,-6 l -34,0 a 3.0003,3.0003 0 0 0 -0.3125,0 z M 47,57 c -3.83046,0 -7,3.1695 -7,7 0,3.8304 3.16954,7 7,7 3.83046,0 7,-3.1696 7,-7 0,-3.8305 -3.16954,-7 -7,-7 z m 0,6 c 0.587818,0 1,0.4122 1,1 0,0.5878 -0.412182,1 -1,1 -0.587818,0 -1,-0.4122 -1,-1 0,-0.5878 0.412182,-1 1,-1 z"
       transform="translate(0,952.36218)"
       visibility="visible"
       display="inline"
       overflow="visible"
       id="path6"
       inkscape:connector-curvature="0" />
  </g>
</svg>
