<?xml version="1.0" encoding="UTF-8" standalone="no"?>
<svg
   xmlns:dc="http://purl.org/dc/elements/1.1/"
   xmlns:cc="http://creativecommons.org/ns#"
   xmlns:rdf="http://www.w3.org/1999/02/22-rdf-syntax-ns#"
   xmlns:svg="http://www.w3.org/2000/svg"
   xmlns="http://www.w3.org/2000/svg"
   xmlns:sodipodi="http://sodipodi.sourceforge.net/DTD/sodipodi-0.dtd"
   xmlns:inkscape="http://www.inkscape.org/namespaces/inkscape"
   version="1.1"
   x="0px"
   y="0px"
   viewBox="0 0 144.88637 75"
   enable-background="new 0 0 100 100"
   xml:space="preserve"
   id="svg2"
   inkscape:version="0.91 r13725"
   sodipodi:docname="rapide_sur.svg"
   width="144.88637"
   height="75"
   inkscape:export-filename="C:\wamp\www\taxidoudou\css\img\rapide_sur.png"
   inkscape:export-xdpi="87.315506"
   inkscape:export-ydpi="87.315506"><metadata
     id="metadata18"><rdf:RDF><cc:Work
         rdf:about=""><dc:format>image/svg+xml</dc:format><dc:type
           rdf:resource="http://purl.org/dc/dcmitype/StillImage" /><dc:title></dc:title></cc:Work></rdf:RDF></metadata><defs
     id="defs16" /><sodipodi:namedview
     pagecolor="#ffffff"
     bordercolor="#666666"
     borderopacity="1"
     objecttolerance="10"
     gridtolerance="10"
     guidetolerance="10"
     inkscape:pageopacity="0"
     inkscape:pageshadow="2"
     inkscape:window-width="1920"
     inkscape:window-height="1017"
     id="namedview14"
     showgrid="false"
     fit-margin-top="0"
     fit-margin-left="0"
     fit-margin-right="0"
     fit-margin-bottom="0"
     inkscape:zoom="2.6700352"
     inkscape:cx="-24.956547"
     inkscape:cy="17.469943"
     inkscape:window-x="-8"
     inkscape:window-y="-8"
     inkscape:window-maximized="1"
     inkscape:current-layer="svg2" /><g
     id="g4151"
     transform="matrix(1.6932071,0,0,1.6887078,-1.6932071,-12.727209)"><g
       id="g4158"
       transform="matrix(0.87315503,0,0,0.87169277,0.12684497,6.6654721)"
       style="fill:#ffffff;stroke:none;stroke-opacity:1"><path
         style="fill:#ffffff;stroke:none;stroke-width:1.14623213;stroke-miterlimit:10;stroke-opacity:1"
         inkscape:connector-curvature="0"
         stroke-miterlimit="10"
         d="m 54.795133,23.002226 c 0.141415,-0.726488 -0.03619,-3.647928 -0.922225,-3.820733 l -0.715667,-0.138586 c -0.886697,-0.172035 -2.146363,2.468314 -2.287671,3.196214 l -5.629934,28.939315 3.916172,0.770876 5.639319,-28.947057 z"
         id="path4" /><path
         style="fill:#ffffff;stroke:none;stroke-width:1.14623213;stroke-miterlimit:10;stroke-opacity:1"
         inkscape:connector-curvature="0"
         stroke-miterlimit="10"
         d="m 63.396833,37.107743 -16.65339,10.293818 c -0.372559,0.230313 -0.19371,1.196649 0.398048,2.15579 l 0.481458,0.776915 c 0.591757,0.959142 1.375701,1.550236 1.749961,1.318873 L 66.024397,41.358145 c 0.373085,-0.229462 1.326047,-1.894299 0.731537,-2.854091 L 66.275852,37.727465 C 65.683244,36.768849 63.768865,36.87658 63.396838,37.107722 Z"
         id="path6" /><path
         inkscape:connector-curvature="0"
         id="path8"
         d="M 48.949219,1.0117188 C 32.406281,1.3825404 16.450016,10.127297 7.5722656,25.505859 3.1152656,33.220859 1,41.642125 1,49.953125 c 3.85e-5,0.651925 0.016987,1.302968 0.042969,1.953125 l 4.0117187,0 c -0.00349,-0.08352 -0.012597,-0.166437 -0.015625,-0.25 2.673,-0.033 4.8066406,-0.692 4.8066406,-1.5 0,-0.782 -3.6474062,-1.421188 -4.8164062,-1.492188 0.162,-5.603 1.341625,-11.039828 3.515625,-16.173828 0.521,-1.231 1.0937969,-2.432515 1.7167969,-3.603515 2.346,1.325 4.550031,1.831953 4.957031,1.126953 0.396,-0.686 -2.526891,-3.121563 -3.462891,-3.726563 1.815,-2.922 3.964641,-5.630656 6.431641,-8.097656 2.446,-2.446 5.130391,-4.580719 8.025391,-6.386719 1.374583,2.358853 3.053059,3.930307 3.763671,3.519532 0.702364,-0.404634 -0.684805,-4.12716 -1.166015,-5.021485 1.196,-0.6369997 2.422687,-1.2238591 3.679687,-1.7558591 5.085,-2.151 10.463813,-3.3297657 16.007813,-3.5097657 0.043,1.0660001 0.696094,4.8994375 1.496094,4.8984376 0.818,-0.001 1.484906,-2.1834376 1.503906,-4.8984376 3.577,0.1170001 7.112109,0.6545157 10.537109,1.6035157 3.184,0.882 6.262735,2.1157344 9.177735,3.6777341 -0.511,0.999 -1.820719,4.558125 -1.136719,4.953125 0.706,0.406 2.361515,-1.133125 3.728516,-3.453125 5.836,3.646 10.784874,8.601453 14.421874,14.439453 -2.359999,1.376 -3.936343,3.056579 -3.527343,3.767579 0.411,0.711999 2.656344,0.187078 5.027343,-1.169922 1.58,2.961 2.821172,6.092171 3.701172,9.326172 0.922,3.391999 1.440875,6.897453 1.546875,10.439453 -2.711,0.02 -4.888671,0.685953 -4.888671,1.501953 -0.001,0.796 3.783906,1.44214 4.878906,1.49414 -0.0034,0.09734 -0.01162,0.193784 -0.01563,0.291016 l 3.992187,0 C 98.96506,51.286018 98.999925,50.666233 99,50.046875 99,33.113875 90.211094,16.645313 74.496094,7.5703125 66.441,2.9197187 57.614567,0.81747885 48.949219,1.0117188 Z M 28.779297,10.244141 c 0.0084,0.01585 0.01905,0.03433 0.0293,0.05273 -0.884,0.474 -1.749657,0.973953 -2.597656,1.501953 -0.01108,-0.01751 -0.02098,-0.035 -0.03125,-0.05273 L 28.7793,10.244141 Z"
         style="fill:#ffffff;stroke:none;stroke-opacity:1" /></g></g></svg>