<?xml version="1.0" encoding="UTF-8" standalone="no"?>
<svg
   xmlns:dc="http://purl.org/dc/elements/1.1/"
   xmlns:cc="http://creativecommons.org/ns#"
   xmlns:rdf="http://www.w3.org/1999/02/22-rdf-syntax-ns#"
   xmlns:svg="http://www.w3.org/2000/svg"
   xmlns="http://www.w3.org/2000/svg"
   xmlns:sodipodi="http://sodipodi.sourceforge.net/DTD/sodipodi-0.dtd"
   xmlns:inkscape="http://www.inkscape.org/namespaces/inkscape"
   version="1.1"
   x="0px"
   y="0px"
   viewBox="0 0 87 68"
   enable-background="new 0 0 100 100"
   xml:space="preserve"
   id="svg2"
   inkscape:version="0.91 r13725"
   sodipodi:docname="remorque.svg"
   width="87"
   height="68"
   inkscape:export-filename="C:\wamp\www\taxidoudou\css\img\remorque.png"
   inkscape:export-xdpi="90"
   inkscape:export-ydpi="90"><metadata
     id="metadata12"><rdf:RDF><cc:Work
         rdf:about=""><dc:format>image/svg+xml</dc:format><dc:type
           rdf:resource="http://purl.org/dc/dcmitype/StillImage" /><dc:title></dc:title></cc:Work></rdf:RDF></metadata><defs
     id="defs10" /><sodipodi:namedview
     pagecolor="#ffffff"
     bordercolor="#666666"
     borderopacity="1"
     objecttolerance="10"
     gridtolerance="10"
     guidetolerance="10"
     inkscape:pageopacity="0"
     inkscape:pageshadow="2"
     inkscape:window-width="1920"
     inkscape:window-height="1017"
     id="namedview8"
     showgrid="false"
     fit-margin-top="20"
     fit-margin-left="0"
     fit-margin-right="0"
     fit-margin-bottom="0"
     inkscape:zoom="1.668772"
     inkscape:cx="-150.38038"
     inkscape:cy="-34.376512"
     inkscape:window-x="-8"
     inkscape:window-y="-8"
     inkscape:window-maximized="1"
     inkscape:current-layer="svg2" /><path
     d="m 85.309234,52.878518 -15.73011,0 0,-32.878518 -67.395664,0 0,32.320248 -1.123926,0 C 0.477084,52.320248 0,52.773728 0,53.32736 l 0,2.496444 c 0,0.553632 0.477084,1.007106 1.059534,1.007106 l 1.123926,0 0,0.522102 20.01411,0 C 22.19757,63.233384 27.212322,68 33.398796,68 c 6.18648,0 11.201226,-4.766616 11.201226,-10.646988 l 24.979102,0 0,-1.259346 15.73011,0 c 0.929772,0 1.690764,-0.723342 1.690764,-1.607112 0,-0.88377 -0.760992,-1.608036 -1.690764,-1.608036 z M 33.398796,63.92705 c -3.818622,0 -6.915276,-2.942508 -6.915276,-6.573108 0,-3.630606 3.095676,-6.573108 6.915276,-6.573108 3.8196,0 6.915276,2.942502 6.915276,6.573108 0,3.629676 -3.096648,6.573108 -6.915276,6.573108 z"
     id="path6"
     inkscape:connector-curvature="0"
     style="fill:#e74c3c;fill-opacity:1"
     inkscape:export-xdpi="90"
     inkscape:export-ydpi="90" /></svg>