<?xml version="1.0" encoding="UTF-8" standalone="no"?>
<svg
   xmlns:dc="http://purl.org/dc/elements/1.1/"
   xmlns:cc="http://creativecommons.org/ns#"
   xmlns:rdf="http://www.w3.org/1999/02/22-rdf-syntax-ns#"
   xmlns:svg="http://www.w3.org/2000/svg"
   xmlns="http://www.w3.org/2000/svg"
   xmlns:sodipodi="http://sodipodi.sourceforge.net/DTD/sodipodi-0.dtd"
   xmlns:inkscape="http://www.inkscape.org/namespaces/inkscape"
   version="1.1"
   x="0px"
   y="0px"
   viewBox="0 0 125 100"
   enable-background="new 0 0 100 100"
   xml:space="preserve"
   id="svg2"
   inkscape:version="0.91 r13725"
   sodipodi:docname="taxi_luxe.svg"
   width="125"
   height="100"
   inkscape:export-filename="C:\wamp\www\taxidoudou\css\img\taxi_luxe.png"
   inkscape:export-xdpi="90"
   inkscape:export-ydpi="90"><metadata
     id="metadata14"><rdf:RDF><cc:Work
         rdf:about=""><dc:format>image/svg+xml</dc:format><dc:type
           rdf:resource="http://purl.org/dc/dcmitype/StillImage" /><dc:title></dc:title></cc:Work></rdf:RDF></metadata><defs
     id="defs12" /><sodipodi:namedview
     pagecolor="#ffffff"
     bordercolor="#666666"
     borderopacity="1"
     objecttolerance="10"
     gridtolerance="10"
     guidetolerance="10"
     inkscape:pageopacity="0"
     inkscape:pageshadow="2"
     inkscape:window-width="1680"
     inkscape:window-height="987"
     id="namedview10"
     showgrid="false"
     fit-margin-top="0"
     fit-margin-left="0"
     fit-margin-right="0"
     fit-margin-bottom="0"
     inkscape:zoom="2.36"
     inkscape:cx="-30.29421"
     inkscape:cy="36.701555"
     inkscape:window-x="3352"
     inkscape:window-y="14"
     inkscape:window-maximized="1"
     inkscape:current-layer="svg2" /><g
     id="g3342"
     transform="matrix(1.324338,0,0,1.3512301,-3.9249418,-14.863531)"
     style="fill:#ffffff"><path
       id="path4"
       d="m 97.342,37.227 c -0.814,-4.888 -8.96,-2.624 -8.96,-2.624 0.814,2.953 0,3.397 0,3.397 l -1.749,0 C 77.229,21 67.263,19.94 67.239,19.987 67.72,19.033 68,18.229 68,16.993 68,13.68 65.985,11 63.5,11 l -25,0 c -2.485,0 -4.5,2.677 -4.5,5.991 0,1.412 0.368,1.971 0.979,2.996 C 34.579,19.314 21,21 13.839,38 l -1.891,0 c 0,0 -0.814,-0.445 0,-3.397 0,0 -8.146,-2.259 -8.96,2.628 0,0 -0.988,5.769 9.636,2.793 -0.886,1.508 -3.467,6.081 -3.896,6.845 C 8.715,46.891 8.714,46.927 8.69,46.935 3,49 4.72,57.163 4.821,59.616 5.068,65.579 5.227,71 5.432,78 c 0,0 0.248,0 0.694,0 0.072,2 0.735,5.014 1.022,5.413 1.011,1.407 2.066,1.532 3.602,1.563 2.764,0.057 5.534,0.017 8.299,0.017 0,0 1.005,-0.993 1.162,-6.993 16.329,0 42.479,0 58.928,0 0.157,6 1.162,6.991 1.162,6.991 2.765,0 5.535,0.042 8.299,-0.015 1.535,-0.031 2.591,-0.154 3.602,-1.562 0.286,-0.398 0.95,-3.414 1.022,-5.414 0.646,0 0.993,0 0.993,0 0.026,0 0.457,-16.672 0.705,-19.354 C 96,47 91,46.983 91,46.983 c 0,0 -3.23,-6.87 -3.274,-6.956 10.274,2.973 9.616,-2.8 9.616,-2.8 z M 27,24 72.836,24 c 0,0 5.329,4 10.164,14 L 16.835,38 C 21.671,28 27,24 27,24 Z m 1.239,37.103 C 22.478,61.223 21,57.983 21,57.983 l -3.35,-6.654 6.517,2.443 4.072,7.331 z M 10,57.982 c 0,0 -8,-12.982 5.021,-7.469 l 3.258,8.96 L 10,57.982 Z m 7.338,16.584 c -2.75,-0.991 -2.875,-4.68 -3.502,-7.133 0,0 11.165,-0.434 13.033,4.072 l 1.629,4.073 C 28.497,75.579 18.186,74.871 17.338,74.566 Z M 66,74.181 C 65,77 35,77 34.22,74.692 34.133,74.437 32,69 32,69 l 4,0 0,-3 28,0 0,3 4,0 c 0,0 -1.999,5.179 -2,5.181 z M 63.119,62.982 c -4,0 -13.119,1 -13.119,1 0,0 -9,-1 -13,-1 0,0 -5.449,0.17 -6.225,-2.915 l -2.536,-6.11 c 0,0 12.761,-0.975 21.761,-0.975 9,0 21.88,0.975 21.88,0.975 l -2.536,6.11 c -0.776,3.085 -6.225,2.915 -6.225,2.915 z m 12.36,-9.211 6.516,-2.443 -3.35,6.654 c 0,0 -1.479,3.24 -7.239,3.12 l 4.073,-7.331 z m 7.515,20.795 c -0.848,0.305 -11.159,1.013 -11.159,1.013 l 1.629,-4.073 C 76,67 86.496,67.434 86.496,67.434 c -0.627,2.453 -0.752,6.141 -3.502,7.132 z m 6.651,-16.584 -8.279,1.491 3.258,-8.96 C 98,46 89.645,57.982 89.645,57.982 Z"
       inkscape:connector-curvature="0"
       style="fill:#ffffff" /><circle
       id="circle6"
       r="4"
       cy="58"
       cx="50"
       style="fill:#ffffff" /><rect
       id="rect8"
       height="7"
       width="26"
       y="67"
       x="37"
       style="fill:#ffffff" /></g></svg>