<?xml version="1.0" encoding="UTF-8" standalone="no"?>
<!-- Created with Inkscape (http://www.inkscape.org/) -->

<svg
   xmlns:dc="http://purl.org/dc/elements/1.1/"
   xmlns:cc="http://creativecommons.org/ns#"
   xmlns:rdf="http://www.w3.org/1999/02/22-rdf-syntax-ns#"
   xmlns:svg="http://www.w3.org/2000/svg"
   xmlns="http://www.w3.org/2000/svg"
   xmlns:sodipodi="http://sodipodi.sourceforge.net/DTD/sodipodi-0.dtd"
   xmlns:inkscape="http://www.inkscape.org/namespaces/inkscape"
   width="25.869154mm"
   height="28.731686mm"
   viewBox="0 0 91.662357 101.80519"
   id="svg4223"
   version="1.1"
   inkscape:version="0.91 r13725"
   sodipodi:docname="vehicles_adapte.svg"
   inkscape:export-filename="C:\wamp\www\taxidoudou\css\img\vehicles_adapte.png"
   inkscape:export-xdpi="89.900002"
   inkscape:export-ydpi="89.900002">
  <defs
     id="defs4225" />
  <sodipodi:namedview
     id="base"
     pagecolor="#ffffff"
     bordercolor="#666666"
     borderopacity="1.0"
     inkscape:pageopacity="0.0"
     inkscape:pageshadow="2"
     inkscape:zoom="1.4"
     inkscape:cx="14.574341"
     inkscape:cy="129.61708"
     inkscape:document-units="px"
     inkscape:current-layer="layer1"
     showgrid="false"
     fit-margin-top="0"
     fit-margin-left="0"
     fit-margin-right="0"
     fit-margin-bottom="0"
     inkscape:window-width="1680"
     inkscape:window-height="987"
     inkscape:window-x="1912"
     inkscape:window-y="21"
     inkscape:window-maximized="1" />
  <metadata
     id="metadata4228">
    <rdf:RDF>
      <cc:Work
         rdf:about="">
        <dc:format>image/svg+xml</dc:format>
        <dc:type
           rdf:resource="http://purl.org/dc/dcmitype/StillImage" />
        <dc:title />
      </cc:Work>
    </rdf:RDF>
  </metadata>
  <g
     inkscape:label="Calque 1"
     inkscape:groupmode="layer"
     id="layer1"
     transform="translate(-205.1241,-470.43248)">
    <g
       id="g4174"
       transform="matrix(1.1269045,0,0,1.1269045,158.49884,370.67065)"
       style="fill:#e74c3c;fill-opacity:1">
      <path
         d="m 120.25865,109.51746 c 0,-1.45848 1.09518,-2.6397 2.45593,-2.65564 -0.0468,-1.06756 -0.16359,-2.01403 -0.39091,-2.6705 -1.64756,-7.452775 -7.6238,-13.661648 -15.46004,-13.661648 -0.99639,0 -1.61674,-0.0074 -2.45061,-0.0053 l 0.003,-0.05099 -3.45658,0.0053 c -0.0372,-1.084562 -0.77437,-1.950299 -1.680493,-1.950299 l -10.732288,0 c -0.91354,0 -1.6518,0.878484 -1.68048,1.972605 l -21.3258,0.03399 c -0.0143,-1.111117 -0.76111,-2.007659 -1.68527,-2.007659 l -10.731953,0 c -0.929472,0 -1.68261,0.907165 -1.686859,2.029967 l -4.418975,0.0074 c -0.194392,-0.0308 -0.393034,-0.05099 -0.596987,-0.05099 l -1.284265,0 c -2.076707,0 -3.761441,1.682611 -3.761441,3.760379 l 0,20.414395 0,0.42065 0,4.03338 c 0,1.98535 1.539206,3.60741 3.487378,3.74763 l 0,0.0159 c 0,0 0.700026,0 1.947112,0.002 0.403657,4.06418 3.832612,7.2382 8.004082,7.2382 4.164036,0 7.589808,-3.16446 8.003018,-7.21802 11.61893,0.0191 26.67107,0.0372 38.209281,0.0542 0.43871,4.02807 3.8496,7.1649 7.99346,7.1649 4.13853,0 7.54411,-3.12515 7.9892,-7.14578 0.66708,0 1.13979,10e-4 1.37774,10e-4 4.02381,0 3.8358,-2.34864 3.8358,-4.35949 0,-1.7559 -0.001,-3.02317 -0.001,-3.31742 l 0.005,0 c 0,0 0.1774,-1.36393 0.32293,-3.17507 -1.27895,-0.0988 -2.29021,-1.23434 -2.29021,-2.63333 z m -62.279933,13.40776 c 0,0.002 -0.0011,0.004 -0.0021,0.005 -0.130661,0.50776 -0.379224,0.95922 -0.714896,1.33951 -0.01806,0.0223 -0.03399,0.0457 -0.05311,0.0658 -0.08498,0.0914 -0.178459,0.16996 -0.271936,0.25069 -0.05843,0.0499 -0.113666,0.0999 -0.174211,0.14553 -0.08391,0.0616 -0.169959,0.1179 -0.259188,0.17208 -0.08604,0.0531 -0.174211,0.0999 -0.26344,0.14341 -0.08074,0.0393 -0.1604,0.0765 -0.244318,0.11047 -0.115792,0.0457 -0.237946,0.0786 -0.360104,0.11048 -0.06905,0.0191 -0.135969,0.0414 -0.207139,0.0552 -0.199704,0.0382 -0.402595,0.0627 -0.612921,0.0627 -0.209265,0 -0.414279,-0.0223 -0.61292,-0.0637 -0.07117,-0.0138 -0.138093,-0.035 -0.206078,-0.0542 -0.12322,-0.0319 -0.244318,-0.0658 -0.362228,-0.11048 -0.08391,-0.0329 -0.162525,-0.0691 -0.242193,-0.11047 -0.09136,-0.0446 -0.180584,-0.0924 -0.267688,-0.14766 -0.08923,-0.052 -0.174211,-0.11047 -0.256004,-0.1689 -0.06373,-0.0489 -0.121094,-0.0988 -0.180583,-0.14871 -0.09242,-0.0807 -0.182708,-0.15934 -0.266625,-0.24857 -0.02231,-0.0255 -0.04356,-0.0563 -0.06586,-0.0807 -0.331423,-0.37922 -0.576802,-0.83174 -0.705335,-1.33525 0,-0.001 0,-0.001 0,-0.002 -0.06586,-0.26025 -0.112603,-0.529 -0.112603,-0.81262 0,-1.81115 1.468034,-3.28237 3.279177,-3.28237 1.812204,0 3.280239,1.47122 3.280239,3.28237 -0.0021,0.2868 -0.04992,0.55874 -0.117905,0.82218 l 0,0 z m 53.122243,1.69536 c -0.0457,0.0393 -0.0913,0.0797 -0.14127,0.11686 -0.0872,0.0637 -0.17634,0.12109 -0.27088,0.17633 -0.0797,0.0489 -0.16465,0.0945 -0.24963,0.13703 -0.0828,0.0393 -0.16146,0.0765 -0.24644,0.10941 -0.11149,0.0457 -0.23476,0.0786 -0.35479,0.11048 -0.0659,0.0181 -0.13597,0.0393 -0.20502,0.0531 -0.19969,0.0372 -0.40152,0.0627 -0.60761,0.0627 -0.2082,0 -0.41427,-0.0223 -0.60761,-0.0627 -0.0712,-0.0138 -0.13915,-0.0351 -0.20713,-0.0542 -0.11999,-0.0308 -0.24113,-0.0648 -0.35586,-0.11048 -0.085,-0.0308 -0.16465,-0.0701 -0.2475,-0.11047 -0.085,-0.0414 -0.16997,-0.0871 -0.24857,-0.13703 -0.0946,-0.0574 -0.18696,-0.11154 -0.27087,-0.17634 -0.051,-0.0372 -0.0966,-0.0786 -0.14447,-0.1179 -0.72658,-0.60018 -1.19716,-1.49672 -1.19716,-2.5133 0,-1.80901 1.4691,-3.2813 3.28236,-3.2813 1.81114,0 3.27812,1.47229 3.27812,3.2813 -0.008,1.01871 -0.47803,1.91419 -1.20567,2.51648 z m 1.84621,-28.686162 c 4.80987,2.653511 5.61506,8.385432 5.61506,8.385432 l -14.11628,0 -0.0361,-10.226316 c 0,-0.0011 3.72532,-0.812625 8.53733,1.840884 z m -21.641311,-1.93755 9.871541,0 0,10.509942 -9.871541,0 0,-10.509942 z m -11.67735,0 9.87365,0 0,10.509942 -9.87365,0 0,-10.509942 z m -11.67735,0 9.87152,0 0,10.509942 -9.87152,0 0,-10.509942 z m -11.676296,0 9.872586,0 0,10.509942 -9.872586,0 0,-10.509942 z m -11.676294,0 9.871525,0 0,10.509942 -9.871525,0 0,-10.509942 z"
         id="path4"
         inkscape:connector-curvature="0"
         style="fill:#e74c3c;fill-opacity:1" />
      <g
         style="fill:#e74c3c;fill-opacity:1"
         id="g3096"
         transform="matrix(1.1058903,0,0,1.1058903,-172.17392,-125.1973)">
        <g
           style="fill:#e74c3c;fill-opacity:1"
           id="g3143"
           transform="matrix(1.2489428,0,0,1.2489428,177.49999,208.25736)">
          <g
             style="fill:#e74c3c;fill-opacity:1"
             id="g3000"
             transform="translate(-5.5086081,-0.60026165)">
            <g
               style="fill:#e74c3c;fill-opacity:1"
               id="g3002">
              <g
                 style="fill:#e74c3c;fill-opacity:1"
                 id="g3004">
                <path
                   style="fill:#e74c3c;fill-opacity:1"
                   inkscape:connector-curvature="0"
                   d="m 30.5,54 c -3,0 -5.5,-2.5 -5.5,-5.5 0,-3 2.5,-5.5 5.5,-5.5 3,0 5.5,2.5 5.5,5.5 0,3 -2.5,5.5 -5.5,5.5 z m 0,-9 C 28.6,45 27,46.6 27,48.5 27,50.4 28.6,52 30.5,52 32.4,52 34,50.4 34,48.5 34,46.6 32.4,45 30.5,45 Z"
                   id="path3006" />
              </g>
              <g
                 style="fill:#e74c3c;fill-opacity:1"
                 id="g3008">
                <path
                   style="fill:#e74c3c;fill-opacity:1"
                   inkscape:connector-curvature="0"
                   d="M 30.5,50 C 29.7,50 29,49.3 29,48.5 29,47.7 29.7,47 30.5,47 c 0.8,0 1.5,0.7 1.5,1.5 0,0.8 -0.7,1.5 -1.5,1.5 z m 0,-2 C 30.2,48 30,48.2 30,48.5 30,48.8 30.2,49 30.5,49 30.8,49 31,48.8 31,48.5 31,48.2 30.8,48 30.5,48 Z"
                   id="path3010" />
              </g>
            </g>
            <g
               style="fill:#e74c3c;fill-opacity:1"
               id="g3012">
              <path
                 style="fill:#e74c3c;fill-opacity:1"
                 inkscape:connector-curvature="0"
                 d="m 67.9,49 -2.9,0 0,-2 2.9,0 c 0.6,-0.1 1.9,-2.3 2.1,-3.2 0.4,-1.6 -0.1,-2.8 -0.5,-3.4 -0.6,-0.9 -1.3,-1.3 -1.7,-1.3 -1.2,-0.2 -3.1,-0.6 -5,-0.9 -2.4,-0.5 -5.5,-1 -5.9,-1.1 l 0,-2 c 0.3,0 1.3,0.2 6.2,1.1 1.9,0.4 3.8,0.7 5,0.9 1.1,0.2 2.2,1.1 3,2.2 0.7,1 1.3,2.7 0.8,5 -0.1,0.7 -1.8,4.7 -4,4.7 z"
                 id="path3014" />
            </g>
            <g
               style="fill:#e74c3c;fill-opacity:1"
               id="g3016">
              <path
                 style="fill:#e74c3c;fill-opacity:1"
                 inkscape:connector-curvature="0"
                 d="m 26,49 -3,0 c -2.8,0 -5,-2.2 -5,-5 l 0,-4 c 0,-2.8 2.2,-5 5,-5 l 4.4,0 2,-4.1 C 30.6,28.5 33.1,27 35.8,27 l 12.9,0 c 2.4,0 4.6,1.2 5.9,3.3 l 3.2,5.2 -1.7,1.1 -3.2,-5.2 C 52,29.9 50.4,29 48.7,29 l -12.9,0 c -2,0 -3.7,1.1 -4.6,2.8 L 28.6,37 23,37 c -1.7,0 -3,1.3 -3,3 l 0,4 c 0,1.7 1.3,3 3,3 l 3,0 0,2 z"
                 id="path3018" />
            </g>
            <g
               style="fill:#e74c3c;fill-opacity:1"
               id="g3020">
              <g
                 style="fill:#e74c3c;fill-opacity:1"
                 id="g3022">
                <path
                   style="fill:#e74c3c;fill-opacity:1"
                   inkscape:connector-curvature="0"
                   d="m 60.5,54 c -3,0 -5.5,-2.5 -5.5,-5.5 0,-3 2.5,-5.5 5.5,-5.5 3,0 5.5,2.5 5.5,5.5 0,3 -2.5,5.5 -5.5,5.5 z m 0,-9 C 58.6,45 57,46.6 57,48.5 57,50.4 58.6,52 60.5,52 62.4,52 64,50.4 64,48.5 64,46.6 62.4,45 60.5,45 Z"
                   id="path3024" />
              </g>
              <g
                 style="fill:#e74c3c;fill-opacity:1"
                 id="g3026">
                <path
                   style="fill:#e74c3c;fill-opacity:1"
                   inkscape:connector-curvature="0"
                   d="M 60.5,50 C 59.7,50 59,49.3 59,48.5 59,47.7 59.7,47 60.5,47 c 0.8,0 1.5,0.7 1.5,1.5 0,0.8 -0.7,1.5 -1.5,1.5 z m 0,-2 C 60.2,48 60,48.2 60,48.5 60,48.8 60.2,49 60.5,49 60.8,49 61,48.8 61,48.5 61,48.2 60.8,48 60.5,48 Z"
                   id="path3028" />
              </g>
            </g>
            <g
               style="fill:#e74c3c;fill-opacity:1"
               id="g3030">
              <polygon
                 style="fill:#e74c3c;fill-opacity:1"
                 points="43,37 43,30 53,30 53,32 45,32 45,35 57,35 57,37 "
                 id="polygon3032" />
            </g>
            <g
               style="fill:#e74c3c;fill-opacity:1"
               id="g3034">
              <path
                 style="fill:#e74c3c;fill-opacity:1"
                 inkscape:connector-curvature="0"
                 d="m 44,37 -9.1,0 c -0.8,0 -1.4,-0.4 -1.8,-1.1 -0.4,-0.7 -0.4,-1.5 0,-2.1 l 1.5,-2.5 C 35.1,30.5 36,30 36.9,30 l 7.1,0 0,2 -7.1,0 c -0.2,0 -0.5,0.1 -0.6,0.3 l -1.5,2.5 0.1,0.1 9.1,0 0,2.1 z"
                 id="path3036" />
            </g>
            <g
               style="fill:#e74c3c;fill-opacity:1"
               id="g3038">
              <rect
                 style="fill:#e74c3c;fill-opacity:1"
                 x="35"
                 y="47"
                 width="20"
                 height="2"
                 id="rect3040" />
            </g>
            <g
               style="fill:#e74c3c;fill-opacity:1"
               id="g3042">
              <rect
                 style="fill:#e74c3c;fill-opacity:1"
                 x="19"
                 y="39"
                 width="3"
                 height="2"
                 id="rect3044" />
            </g>
            <g
               style="fill:#e74c3c;fill-opacity:1"
               id="g3046">
              <rect
                 style="fill:#e74c3c;fill-opacity:1"
                 x="67"
                 y="41"
                 width="4"
                 height="2"
                 id="rect3048" />
            </g>
            <g
               style="fill:#e74c3c;fill-opacity:1"
               id="g3050">
              <rect
                 style="fill:#e74c3c;fill-opacity:1"
                 x="40"
                 y="40"
                 width="2"
                 height="2"
                 id="rect3052" />
            </g>
            <g
               style="fill:#e74c3c;fill-opacity:1"
               id="g3054">
              <rect
                 style="fill:#e74c3c;fill-opacity:1"
                 x="42"
                 y="42"
                 width="2"
                 height="2"
                 id="rect3056" />
            </g>
            <g
               style="fill:#e74c3c;fill-opacity:1"
               id="g3058">
              <rect
                 style="fill:#e74c3c;fill-opacity:1"
                 x="44"
                 y="40"
                 width="2"
                 height="2"
                 id="rect3060" />
            </g>
            <g
               style="fill:#e74c3c;fill-opacity:1"
               id="g3062">
              <rect
                 style="fill:#e74c3c;fill-opacity:1"
                 x="48"
                 y="40"
                 width="2"
                 height="2"
                 id="rect3064" />
            </g>
            <g
               style="fill:#e74c3c;fill-opacity:1"
               id="g3066">
              <rect
                 style="fill:#e74c3c;fill-opacity:1"
                 x="46"
                 y="42"
                 width="2"
                 height="2"
                 id="rect3068" />
            </g>
            <g
               style="fill:#e74c3c;fill-opacity:1"
               id="g3070">
              <path
                 style="fill:#e74c3c;fill-opacity:1"
                 inkscape:connector-curvature="0"
                 d="m 49,28 -2,0 0,-2 c 0,-0.5 -0.5,-1 -1.2,-1 l -5.6,0 C 39.6,25 39,25.4 39,26 l 0,2 -2,0 0,-2 c 0,-1.6 1.4,-3 3.2,-3 l 5.6,0 c 1.8,0 3.2,1.3 3.2,3 l 0,2 z"
                 id="path3072" />
            </g>
          </g>
        </g>
      </g>
    </g>
  </g>
</svg>
